<?xml version="1.0" encoding="UTF-8" standalone="no"?>
<svg width="17px" height="12px" viewBox="0 0 17 12" version="1.1" xmlns="http://www.w3.org/2000/svg" xmlns:xlink="http://www.w3.org/1999/xlink">
    <!-- Generator: Sketch 42 (36781) - http://www.bohemiancoding.com/sketch -->
    <title>arrow right</title>
    <desc>Created with Sketch.</desc>
    <defs></defs>
    <g id="Welcome-Copy" stroke="none" stroke-width="1" fill="none" fill-rule="evenodd">
        <g id="Mobile-Portrait-Copy" transform="translate(-16.000000, -29.000000)" fill="#29292A">
            <g id="arrow-right" transform="translate(24.500000, 34.780000) rotate(-180.000000) translate(-24.500000, -34.780000) translate(16.000000, 29.000000)">
                <g id="Layer_1">
                    <g id="Group">
                        <path d="M11.3333333,11.3333333 C11.05,11.3333333 10.8611111,11.2388889 10.6722222,11.05 C10.2944444,10.6722222 10.2944444,10.1055556 10.6722222,9.72777778 L15.3944444,5.00555556 C15.7722222,4.62777778 16.3388889,4.62777778 16.7166667,5.00555556 C17.0944444,5.38333333 17.0944444,5.95 16.7166667,6.32777778 L11.9944444,11.05 C11.8055556,11.2388889 11.6166667,11.3333333 11.3333333,11.3333333 Z" id="Shape"></path>
                        <path d="M16.0555556,6.61111111 C15.7722222,6.61111111 15.5833333,6.51666667 15.3944444,6.32777778 L10.6722222,1.60555556 C10.2944444,1.22777778 10.2944444,0.661111111 10.6722222,0.283333333 C11.05,-0.0944444444 11.6166667,-0.0944444444 11.9944444,0.283333333 L16.7166667,5.00555556 C17.0944444,5.38333333 17.0944444,5.95 16.7166667,6.32777778 C16.5277778,6.51666667 16.3388889,6.61111111 16.0555556,6.61111111 Z" id="Shape"></path>
                        <path d="M16.0555556,6.61111111 L0.944444444,6.61111111 C0.377777778,6.61111111 3.55271368e-15,6.23333333 3.55271368e-15,5.66666667 C3.55271368e-15,5.1 0.377777778,4.72222222 0.944444444,4.72222222 L16.0555556,4.72222222 C16.6222222,4.72222222 17,5.1 17,5.66666667 C17,6.23333333 16.6222222,6.61111111 16.0555556,6.61111111 Z" id="Shape"></path>
                    </g>
                </g>
            </g>
        </g>
    </g>
</svg>