<?xml version="1.0" encoding="UTF-8" standalone="no"?>
<svg width="10px" height="7px" viewBox="0 0 10 7" version="1.1" xmlns="http://www.w3.org/2000/svg" xmlns:xlink="http://www.w3.org/1999/xlink">
    <!-- Generator: Sketch 42 (36781) - http://www.bohemiancoding.com/sketch -->
    <title>arrow right</title>
    <desc>Created with Sketch.</desc>
    <defs></defs>
    <g id="Welcome-Copy" stroke="none" stroke-width="1" fill="none" fill-rule="evenodd">
        <g id="Desktop-HD-Copy" transform="translate(-662.000000, -740.000000)" fill="#FFFFFF">
            <g id="Group-2" transform="translate(577.000000, 592.000000)">
                <g id="arrow-right" transform="translate(85.000000, 148.000000)">
                    <g id="Layer_1">
                        <g id="Group">
                            <path d="M6.66666667,6.66666667 C6.5,6.66666667 6.38888889,6.61111111 6.27777778,6.5 C6.05555556,6.27777778 6.05555556,5.94444444 6.27777778,5.72222222 L9.05555556,2.94444444 C9.27777778,2.72222222 9.61111111,2.72222222 9.83333333,2.94444444 C10.0555556,3.16666667 10.0555556,3.5 9.83333333,3.72222222 L7.05555556,6.5 C6.94444444,6.61111111 6.83333333,6.66666667 6.66666667,6.66666667 Z" id="Shape"></path>
                            <path d="M9.44444444,3.88888889 C9.27777778,3.88888889 9.16666667,3.83333333 9.05555556,3.72222222 L6.27777778,0.944444444 C6.05555556,0.722222222 6.05555556,0.388888889 6.27777778,0.166666667 C6.5,-0.0555555556 6.83333333,-0.0555555556 7.05555556,0.166666667 L9.83333333,2.94444444 C10.0555556,3.16666667 10.0555556,3.5 9.83333333,3.72222222 C9.72222222,3.83333333 9.61111111,3.88888889 9.44444444,3.88888889 Z" id="Shape"></path>
                            <path d="M9.44444444,3.88888889 L0.555555556,3.88888889 C0.222222222,3.88888889 0,3.66666667 0,3.33333333 C0,3 0.222222222,2.77777778 0.555555556,2.77777778 L9.44444444,2.77777778 C9.77777778,2.77777778 10,3 10,3.33333333 C10,3.66666667 9.77777778,3.88888889 9.44444444,3.88888889 Z" id="Shape"></path>
                        </g>
                    </g>
                </g>
            </g>
        </g>
    </g>
</svg>